<svg xmlns="http://www.w3.org/2000/svg" clip-rule="evenodd" fill-rule="evenodd" image-rendering="optimizeQuality" shape-rendering="geometricPrecision" text-rendering="geometricPrecision" viewBox="0 0 984.28 1533.99" width="16" height="16" style="fill: rgb(66, 184, 131);" original_string_length="3244"><g><path d="M444.1 1367.54c6.09,-2.25 169.64,-2.5 199.85,-2.82 11.37,-0.12 22.74,-0.07 34.1,-0.18 19.77,-0.18 22.02,3.19 23.38,-9.49 -122.73,0.19 -245.71,-0.83 -368.4,0.08 -60.91,0.45 -122.65,0.54 -183.54,-0.05 -15.37,-0.15 -30.77,0.13 -46.14,-0.01 -18.36,-0.17 -25.38,-1.93 -38.01,7.92 -8.87,6.91 -14.81,12.52 -20.49,25.66 -13.01,30.11 -9.78,62.83 9.63,89.32 3.97,5.42 6.21,6.7 12.15,10.94 13.17,9.4 20.77,7 38.72,7.03 198.34,0.36 398.77,-1.6 596.5,0.01 -0.39,-5.12 -5.84,-19.07 -7.44,-25.99 -2.35,-10.15 -3.65,-18.49 -5,-29.11 -11.42,-2.96 -195.27,-1.27 -205.24,-5.37l204.28 -4c-2.68,-16.18 -1.6,-33.3 8.27,-61.69l-252.62 -2.26z" style="fill: inherit;"/><path d="M729.09 1317.85c-69.15,-1.84 -140.1,0.51 -209.52,-0.05 -138.38,-1.12 -280.41,0.06 -419.24,0.07 -21.39,0 -26.89,-1.59 -44.6,7.46 -66.12,33.8 -70.73,132.85 -28,178.37 10.94,11.65 30.27,27.46 48.59,29.63 10.71,1.26 398.01,0.11 444.25,0.11 69.15,0 139.59,1.33 208.72,-0.08l-5.42 -27.88c-14.53,-1.27 -33.8,-0.23 -48.84,-0.23l-582.72 0c-17.68,0.02 -25.19,-3.4 -35.93,-12.09 -39.24,-31.77 -36.63,-107.17 0.98,-136.12 12.76,-9.82 18.69,-11.14 37.96,-11.14 16.05,0 32.09,-0.01 48.14,-0 64.52,0.03 129.05,-0.11 193.57,0 64.52,0.12 129.05,-0.07 193.57,-0.1 16.74,-0.01 181.39,1.03 193.21,-0.28l5.27 -27.65z" style="fill: inherit;"/><path d="M433.96 1132.56c0,0 -15.28,-0.19 -45.85,-0.58 -0,0.01 -0,0.02 -0.01,0.03 -3.11,0 -8.86,-0.12 -15.56,-0.22 -4.07,-0.05 -8.33,-0.11 -12.8,-0.16 -12.42,-0.09 -24.68,0.05 -28.31,1.06 -1.16,2.26 -0.66,4.54 -1.75,6.06 -1.91,2.67 -3.04,0.91 -6.41,2.74 -1.47,11.1 4.22,28.48 6.14,39.35 -19.9,4.77 -46.8,26 -56.37,35.83 -15.01,15.42 -42.73,58.05 -37.3,76.02 2.19,7.26 5.95,7.95 13.57,9.4 31.6,6.01 100.45,6.44 132.85,6.52 30.38,0.07 102.19,-0.87 132.07,-6.11 16.25,-2.85 19.64,-9.23 13.39,-27.85 -7.05,-21 -19.98,-41.61 -34.84,-57.49 -8.84,-9.44 -37.84,-32.13 -56.82,-36.3 2.01,-10.88 7.58,-28.17 6.13,-39.48 -4.72,-2.32 -5.79,0.41 -7.25,-4.94 -0.56,-2.04 -0.1,-2.13 -0.89,-3.89z" style="fill: inherit;"/><path d="M394.02 1192.54c-59.02,-98.36 26.09,-209.18 0.51,-266.5 -3.53,-7.91 -82.12,-94.38 -38.03,-198.3 5.99,22.32 0.52,38.46 16.95,55.31 29.72,-271.7 117.82,-414.84 304.23,-583.65 66.74,-60.45 225.45,-176.18 306.6,-199.39 -54.11,71.55 -90.99,194.06 -107.11,289.08 -30.46,179.66 -29.82,116.51 -158.78,222.88 38.88,-15.76 63.46,-34.55 112.52,-45.47 -18.44,51.73 -38.29,87.43 -52.97,146.85 -40,161.85 27.63,173.81 -119.56,190.26 -17.48,1.95 -32.96,5.13 -47.63,10.05 -21.69,7.27 -25.82,8.76 -37.16,24.04 49.62,-4.33 70.45,-16.69 128.86,-9.8 -40.1,14.79 -52.24,10.88 -107.44,35.71 -26.88,12.09 -22.93,11.3 -28.98,19.04 26.93,4.21 58.73,-0.18 76.45,13.12 -86.72,1.7 -163.73,67.97 -187.31,78.95 21.68,-133.2 45.69,-267.39 94.97,-396.3 55.53,-145.28 98.96,-190.45 175.32,-305.96 -82.01,59.57 -167.22,199.34 -210.73,323.83 -45.24,129.43 -104.28,461.25 -120.69,596.27zm333.74 -923.23c1.29,3.4 5.02,-8.64 -0.75,-2.06 -8.38,9.56 0.71,1.93 0.75,2.06zm-160.53 618.47c-6.86,-2.53 -7.85,-2.85 -7.89,-2.86 -13.2,-4.25 1.71,7.18 7.89,2.86z" style="fill: inherit;"/></g>
</svg>